<svg width="62" height="10" viewBox="0 0 62 10" fill="none" xmlns="http://www.w3.org/2000/svg">
<path d="M9.40515 9.871V0.700928H12.9265C15.3189 0.700928 16.5152 1.90135 16.5152 4.3022V6.26973C16.5152 8.67058 15.3189 9.871 12.9265 9.871H9.40515ZM11.0263 8.39571H13.0191C14.2686 8.39571 14.8926 7.77166 14.8926 6.52215V4.04978C14.8926 2.80027 14.2686 2.17622 13.0191 2.17622H11.0263V8.39571Z" fill="#2F75FF"/>
<path d="M18.2695 7.77171V4.99363C18.2695 3.59407 18.9693 2.89429 20.3689 2.89429H22.0966C23.4877 2.89429 24.1833 3.59407 24.1833 4.99363V6.96115H19.8248V7.90494C19.8248 8.31303 20.0281 8.51637 20.4362 8.51637H23.9183V9.35359L23.2143 9.87246H20.3703C18.9707 9.87246 18.2709 9.17268 18.2709 7.77312L18.2695 7.77171ZM19.8248 5.75231H22.6295V4.86181C22.6295 4.45512 22.4261 4.25037 22.0181 4.25037H20.4362C20.0281 4.25037 19.8248 4.45372 19.8248 4.86181V5.75231Z" fill="#2F75FF"/>
<path d="M25.3262 3.13409L25.4861 2.89429H26.8282L28.5825 8.51637H28.7817L30.536 2.89429H31.8781L32.038 3.13409L29.8587 9.87246H27.5195L25.3262 3.13409Z" fill="#2F75FF"/>
<path d="M33.181 7.77183V4.99374C33.181 3.59418 33.8807 2.8944 35.2803 2.8944H37.5395V0.036377H39.0947V9.87117H35.2803C33.8807 9.87117 33.181 9.17139 33.181 7.77183ZM34.7362 7.90505C34.7362 8.31314 34.9395 8.51648 35.3476 8.51648H37.5409V4.25049H35.3476C34.9395 4.25049 34.7362 4.45383 34.7362 4.86192V7.90505Z" fill="white"/>
<path d="M40.9822 7.77171V4.99363C40.9822 3.59407 41.682 2.89429 43.0815 2.89429H44.9425C46.3336 2.89429 47.0292 3.59407 47.0292 4.99363V7.77171C47.0292 9.17127 46.3336 9.87106 44.9425 9.87106H43.0815C41.682 9.87106 40.9822 9.17127 40.9822 7.77171ZM42.5374 7.90494C42.5374 8.31303 42.7407 8.51637 43.1488 8.51637H44.8639C45.2706 8.51637 45.4754 8.31303 45.4754 7.90494V4.86181C45.4754 4.45512 45.272 4.25037 44.8639 4.25037H43.1488C42.7407 4.25037 42.5374 4.45372 42.5374 4.86181V7.90494Z" fill="white"/>
<path d="M48.8088 7.77171V4.99363C48.8088 3.59407 49.5086 2.89429 50.9082 2.89429H53.4198L54.1238 3.41316V4.25037H50.9741C50.566 4.25037 50.3627 4.45372 50.3627 4.86181V7.90494C50.3627 8.31303 50.566 8.51637 50.9741 8.51637H54.1238V9.35359L53.4198 9.87246H50.9082C49.5086 9.87246 48.8088 9.17268 48.8088 7.77312V7.77171Z" fill="white"/>
<path d="M55.7338 9.87117V0.036377H57.289V5.8576L59.9998 2.8944H61.5283L61.6616 3.16085L59.2158 5.80571L61.8467 9.60612L61.7134 9.87258H60.1849L58.1907 6.92199L57.2876 7.89244V9.87258H55.7324L55.7338 9.87117Z" fill="white"/>
<path d="M0.153442 0V1.24373L2.91128 3.27038L3.75611 2.64812L0.153442 0Z" fill="white"/>
<path d="M6.97701 10V8.88403H5.67763L4.15961 10H6.97701Z" fill="white"/>
<path d="M5.86348 4.19751L5.01865 4.81977H5.01943L4.62602 5.11522L0.174603 8.38716L0.153442 8.40284V9.64579L2.492 7.92713L5.65501 5.60268L6.71536 4.8229L5.86348 4.19751Z" fill="#2F75FF"/>
</svg>
