<svg width="18" height="18" viewBox="0 0 18 18" fill="none" xmlns="http://www.w3.org/2000/svg">
<path d="M1.875 9C1.875 5.64124 1.875 3.96187 2.91843 2.91843C3.96187 1.875 5.64124 1.875 9 1.875C12.3587 1.875 14.0381 1.875 15.0816 2.91843C16.125 3.96187 16.125 5.64124 16.125 9C16.125 12.3587 16.125 14.0381 15.0816 15.0816C14.0381 16.125 12.3587 16.125 9 16.125C5.64124 16.125 3.96187 16.125 2.91843 15.0816C1.875 14.0381 1.875 12.3587 1.875 9Z" stroke="white" stroke-width="1.2"/>
<path d="M5.625 12.75C7.37378 10.9184 10.6074 10.8321 12.375 12.75M10.8713 7.125C10.8713 8.16052 10.0306 9 8.99362 9C7.95667 9 7.11598 8.16052 7.11598 7.125C7.11598 6.08947 7.95667 5.25 8.99362 5.25C10.0306 5.25 10.8713 6.08947 10.8713 7.125Z" stroke="white" stroke-width="1.2" stroke-linecap="round"/>
</svg>
